<?xml version="1.0" standalone="no"?>
<!DOCTYPE svg PUBLIC "-//W3C//DTD SVG 20010904//EN"
 "http://www.w3.org/TR/2001/REC-SVG-20010904/DTD/svg10.dtd">
<svg version="1.0" xmlns="http://www.w3.org/2000/svg"
 width="100.000000pt" height="100.000000pt" viewBox="0 0 400.000000 400.000000"
 preserveAspectRatio="xMidYMid meet">

<g transform="translate(0.000000,300.000000) scale(0.100000,-0.100000)"
fill="#000000" stroke="none">
<path d="M1913 2285 c-19 -8 -42 -31 -58 -60 -25 -41 -27 -53 -23 -113 3 -42
18 -101 40 -158 l34 -92 -79 -7 c-44 -3 -89 -11 -101 -16 -18 -9 -37 0 -115
51 -142 94 -233 118 -329 89 -41 -12 -92 -58 -92 -82 0 -69 53 -141 138 -188
31 -18 59 -34 61 -35 2 -2 -9 -18 -23 -35 -89 -105 -141 -310 -116 -456 16
-98 57 -178 118 -235 58 -54 72 -59 72 -23 0 14 2 25 5 25 3 0 25 -15 49 -34
25 -19 51 -36 58 -39 19 -8 -61 -76 -89 -77 -23 0 -34 12 -83 92 -31 51 -72
68 -111 48 -18 -10 -21 -18 -16 -51 3 -21 15 -51 26 -68 30 -42 9 -50 -34 -13
-46 41 -87 49 -128 25 -55 -32 -47 -81 22 -131 33 -24 37 -31 29 -52 -12 -33
5 -90 36 -119 19 -18 23 -30 19 -56 -3 -18 -1 -41 5 -51 8 -14 5 -28 -9 -56
-25 -49 -24 -53 11 -97 l30 -37 92 2 c51 2 99 -1 108 -6 10 -6 21 -3 32 6 15
14 19 14 41 -1 21 -13 48 -15 164 -12 120 3 146 6 182 25 38 20 48 21 104 12
73 -11 233 1 294 22 24 9 47 12 55 7 40 -26 189 -63 253 -63 86 -1 165 25 165
55 0 23 -22 68 -61 126 -19 28 -25 44 -18 49 6 3 17 21 25 40 16 39 4 127 -22
155 -15 17 -15 20 9 48 17 21 28 26 35 19 8 -8 15 -8 27 2 20 17 20 212 0 329
-22 122 -95 342 -150 451 -13 26 -29 76 -34 110 -6 34 -15 68 -22 76 -18 22
-121 56 -168 55 -37 0 -53 6 -90 36 -25 21 -49 42 -53 47 -4 6 -10 44 -13 86
-16 182 -82 332 -166 376 -35 18 -94 18 -136 -1z m106 -36 c25 -9 38 -24 61
-75 17 -35 30 -69 30 -77 0 -7 4 -17 9 -22 14 -14 39 -145 54 -276 10 -88 16
-114 27 -114 9 0 16 11 18 25 6 52 11 52 58 8 52 -48 82 -96 121 -189 24 -57
27 -77 27 -189 1 -117 -1 -129 -27 -185 -33 -70 -79 -121 -159 -176 -67 -46
-66 -49 -43 87 19 107 17 305 -2 312 -10 3 -13 -12 -13 -52 0 -31 -2 -56 -4
-56 -3 0 -57 25 -120 55 -90 43 -127 68 -169 110 -30 30 -57 55 -60 55 -4 0
-7 -18 -7 -40 0 -39 -20 -152 -41 -233 -9 -33 -13 -37 -32 -31 -56 17 -97 43
-154 99 -48 48 -65 73 -77 115 -9 29 -16 62 -16 72 0 10 -4 18 -10 18 -5 0
-10 -20 -10 -43 0 -44 -17 -88 -52 -139 -27 -39 -38 -35 -38 13 0 24 -4 38
-10 34 -19 -12 -13 -125 19 -343 4 -28 5 -52 0 -52 -10 0 -57 56 -74 91 -32
61 -45 163 -35 266 15 145 34 202 101 299 l28 42 63 -5 c50 -4 66 -2 77 10 20
24 7 34 -56 42 -141 17 -268 114 -249 188 5 20 16 29 47 38 81 25 207 -21 367
-135 63 -44 98 -51 87 -16 -5 15 3 20 45 29 28 6 71 11 95 11 41 0 45 -2 74
-50 44 -72 131 -131 131 -89 0 6 -19 34 -43 63 -138 169 -205 360 -161 457 25
56 60 70 123 48z m648 -1074 c41 -144 53 -214 53 -313 0 -66 -3 -80 -14 -76
-9 3 -26 -12 -46 -40 -17 -25 -35 -46 -41 -46 -5 0 -21 26 -34 57 -24 53 -25
62 -16 128 15 104 -17 221 -77 281 -22 23 -27 34 -21 54 4 14 7 37 8 52 1 15
12 43 25 63 14 20 30 53 36 73 6 20 14 44 17 52 7 20 71 -146 110 -285z m-746
167 c-50 -7 -46 -22 5 -22 35 0 64 -8 95 -24 24 -14 70 -37 102 -52 63 -30 63
-29 43 -124 -8 -36 -17 -88 -21 -117 -7 -50 -9 -53 -62 -83 -49 -28 -58 -30
-84 -20 -17 7 -58 11 -98 8 -56 -3 -75 -8 -94 -26 l-24 -23 -42 22 c-45 23
-72 27 -112 16 -21 -5 -39 2 -86 32 -67 43 -97 93 -128 209 l-16 63 29 37 c16
20 38 54 49 74 l20 38 26 -39 c51 -77 184 -170 244 -171 36 0 52 39 68 166 8
65 15 122 15 126 0 4 22 -14 48 -40 48 -46 48 -47 23 -50z m-570 -474 c22 -24
42 -55 45 -69 4 -19 14 -29 34 -32 26 -6 27 -7 16 -41 -6 -19 -13 -33 -17 -31
-6 4 4 -68 16 -116 5 -22 0 -29 -32 -52 -47 -32 -82 -34 -140 -6 -64 31 -90
92 -58 135 19 25 19 44 -1 44 -24 0 -82 38 -95 62 -15 28 5 48 49 48 27 0 42
-8 69 -36 33 -35 34 -36 59 -19 36 24 38 38 10 80 -53 78 -20 102 45 33z
m1189 -118 c14 -35 14 -35 -22 -44 -23 -5 -27 -2 -37 26 -14 39 -15 36 12 41
12 2 25 5 28 6 4 0 12 -13 19 -29z m67 -100 c36 -22 48 -54 40 -107 -9 -51
-20 -59 -49 -30 -13 13 -31 28 -40 33 -8 5 -22 32 -30 61 -14 47 -14 52 1 56
32 9 47 7 78 -13z m-832 -67 c14 -21 25 -43 25 -50 0 -15 -24 -28 -69 -38
l-33 -7 6 33 c7 32 6 33 -9 15 -8 -11 -15 -24 -15 -29 0 -5 -7 -4 -15 3 -21
18 -19 66 5 90 33 33 75 26 105 -17z m-145 -3 c-6 -12 -14 -19 -17 -17 -2 3 1
15 7 27 6 12 14 19 17 17 2 -3 -1 -15 -7 -27z m-154 -77 c-10 -10 -19 5 -10
18 6 11 8 11 12 0 2 -7 1 -15 -2 -18z m20 -160 c-7 -72 -19 -103 -30 -84 -4 6
-22 12 -39 12 -23 1 -26 3 -10 6 22 4 26 12 38 73 8 38 22 60 38 60 6 0 7 -24
3 -67z m-201 -83 c-3 -5 -10 -10 -16 -10 -5 0 -9 5 -9 10 0 6 7 10 16 10 8 0
12 -4 9 -10z"/>
<path d="M1920 1223 c-63 -23 -80 -98 -34 -153 50 -58 123 -77 183 -45 33 16
41 33 41 79 0 76 -113 147 -190 119z"/>
<path d="M1488 1190 c-9 -6 -22 -26 -28 -44 -9 -29 -8 -41 9 -74 53 -105 168
-133 211 -52 15 29 2 86 -28 122 -42 50 -121 73 -164 48z"/>
<path d="M1300 659 c0 -14 31 -81 36 -76 3 3 -4 22 -15 44 -11 21 -20 35 -21
32z"/>
</g>
</svg>
